<?xml version="1.0" encoding="utf-8"?>
<!-- Generator: Adobe Illustrator 18.0.0, SVG Export Plug-In . SVG Version: 6.00 Build 0)  -->
<!DOCTYPE svg PUBLIC "-//W3C//DTD SVG 1.1//EN" "http://www.w3.org/Graphics/SVG/1.1/DTD/svg11.dtd">
<svg version="1.1" id="Layer_1" xmlns="http://www.w3.org/2000/svg" xmlns:xlink="http://www.w3.org/1999/xlink" x="0px" y="0px"
	 viewBox="0 0 1000 200" enable-background="new 0 0 1000 200" xml:space="preserve">
<g>
	<path fill="#4F7C2C" d="M0,200h1000V92.6c-84.7-2.3-167.8,17.3-253.4,22c-14.2,0.8-28.9,1.1-42.8-0.5
		c-28.1-3.3-49.6-14.3-77.5-17.8c-26.1-3.3-53.7,0.3-80.7,0.7c-66,0.9-128.7-17.4-194.5-14.8c-36,1.4-72.1,9.1-106.9,4.6
		c-10.1-1.3-19.6-3.6-29.7-4.8c-20.3-2.5-41.9-0.5-62.3,1.8C99.7,89.6,48.6,100.8,0,112.3V200z"/>
</g>
<g>
	<path fill="#558B2F" d="M1000,117.8c-29.6,1.9-59.2,3.8-88.9,5.8c-32.5,2.1-65.3,4.2-96.2,9.3c-18.9,3.1-38.2,7.3-57.9,5.8
		c-20.7-1.6-40.3-9.5-60.3-6.5c-6.9,1-12.6,3.3-19.5,4.4c-24.3,3.9-46.4-7.1-67.4-14c-43.1-14.1-101.5-12.2-153.2-7
		c-27.2,2.7-55.7,6.1-82.4,2.4c-14.3-2-26.9-5.8-39.8-9.2C265.9,90.9,92.6,105.3,0,112.8V200h1000V117.8z"/>
</g>
<g>
	<path fill="#689F38" d="M1000,181.7c-73.7,8.9-152,9.9-226.6,2.6c-70-6.9-135.7-20.9-204.3-30.4c-28.2-3.9-57-7.1-85.7-10.1
		c-159.6-17-321-30.4-483.4-40.3V200h1000V181.7z"/>
</g>
<path fill="#7CB342" d="M637.1,187.7c-22.4-3.6-44.4-7.9-67.4-10.7c-59.7-7.3-123.4-4.6-183.6-10.9c-23.4-2.5-46-6.3-69.1-9.5
	c-40.3-5.6-81.8-9.2-123.2-12.8C129.7,138.3,65.2,132.7,0,131.7V200h748C710.3,197.6,673.1,193.5,637.1,187.7z"/>
</svg>
