<?xml version="1.0" encoding="utf-8"?>
<!-- Generator: Adobe Illustrator 18.0.0, SVG Export Plug-In . SVG Version: 6.00 Build 0)  -->
<!DOCTYPE svg PUBLIC "-//W3C//DTD SVG 1.1//EN" "http://www.w3.org/Graphics/SVG/1.1/DTD/svg11.dtd">
<svg version="1.1" id="Layer_1" xmlns="http://www.w3.org/2000/svg" xmlns:xlink="http://www.w3.org/1999/xlink" x="0px" y="0px"
	 viewBox="0 0 500 500" enable-background="new 0 0 500 500" xml:space="preserve">
<path fill="#FFFFFF" d="M352.3,257.7c0-10.3-10.5-19-24.9-21.7c-1.1-0.2-1.8-1.2-1.8-2.2c0,0,0,0,0,0c0-13.3-16.9-24-37.8-24
	c-6.8,0-13.2,1.1-18.8,3.2c-1.2,0.4-2.5-0.2-2.8-1.4c-2.5-7.9-10.7-13.8-20.6-13.8c-11.8,0-21.3,8.4-21.3,18.7
	c0,1.3,0.2,2.5,0.4,3.7c0.1,0.6,0,1.3-0.4,1.8c-4.1,5.6-6.7,14.2-6.7,23.9c0,2.9,0.2,5.7,0.7,8.4c0.3,1.5-1.1,2.8-2.6,2.5
	c-2.3-0.5-4.7-0.8-7.4-0.8c-6.9,0-12.9,2.1-16.1,5.1c-0.6,0.5-1.4,0.8-2.2,0.5c-2-0.6-4.2-1-6.4-1c-4.7,0-9,1.5-12.3,4
	c-1,0.8-2.5,0.5-3.1-0.6c-3.1-4.9-8.4-8.1-14.5-8.1c-2.4,0-4.7,0.5-6.7,1.4c0-0.5,0.1-0.9,0.1-1.4c0-11.4-8.1-20.7-18-20.7
	s-18,9.3-18,20.7c0,7.5,3.5,14,8.7,17.7c0.5,0.4,0.9,0.9,1,1.5c1.1,6.9,5.3,12.1,10.4,12.1c0.1,0,0.3,0,0.4,0
	c-0.3,0.9-0.4,1.9-0.4,2.9c0,7.3,8.1,13.5,20,16.6c0.4,0.1,0.8,0.3,1,0.6c3.9,4.1,9.8,6.7,16.3,6.7c2,0,4-0.3,5.9-0.7
	c1.2-0.3,2.3,0.4,2.6,1.6c1,3.9,3.6,7.3,7.1,9.5c0.4,0.2,0.7,0.6,0.9,1c4.7,11,23.4,19.3,45.9,19.3c2.7,0,5.4-0.1,7.9-0.4
	c0.6-0.1,1.1,0.1,1.6,0.5c7.7,6.4,19.5,10.5,32.6,10.5c22.2,0,40.4-11.7,42-26.5c0.1-0.8,0.6-1.4,1.4-1.7
	c12.6-5.4,21.4-17.6,21.4-31.7c0-5.3-1.2-10.3-3.4-14.8c-0.6-1.2,0-2.6,1.2-3C345.5,273.2,352.3,265.9,352.3,257.7z"/>
</svg>
