<?xml version="1.0" encoding="utf-8"?>
<!-- Generator: Adobe Illustrator 18.0.0, SVG Export Plug-In . SVG Version: 6.00 Build 0)  -->
<!DOCTYPE svg PUBLIC "-//W3C//DTD SVG 1.1//EN" "http://www.w3.org/Graphics/SVG/1.1/DTD/svg11.dtd">
<svg version="1.1" id="Layer_1" xmlns="http://www.w3.org/2000/svg" xmlns:xlink="http://www.w3.org/1999/xlink" x="0px" y="0px"
	 viewBox="0 0 500 500" enable-background="new 0 0 500 500" xml:space="preserve">
<path fill="#FFFFFF" d="M371.5,241.8c0-6.8-5.4-12.6-13.1-14.8c-0.4-0.1-0.8-0.3-1.1-0.6c-3.4-3.3-8.5-5.3-14.3-5.3
	c-5.4,0-10.2,1.8-13.6,4.7c-0.6,0.5-1.3,0.7-2,0.6c-0.9-0.1-1.9-0.2-2.9-0.2c-5.5,0-10,2.4-10,5.3c0,0,0,0.1,0,0.1c0,0-0.1,0-0.1,0
	c-0.7-5.8-6.4-10.3-13.4-10.3c-3.6,0-6.9,1.2-9.3,3.2c-1.1,0.9-2.6,0.8-3.5-0.3c-1.6-1.8-3.7-2.9-6-2.9c-0.1,0-0.2,0-0.4,0
	c-2.7-1.9-6.2-3-9.9-3c-6.7,0-12.5,3.7-15,8.9c-0.3,0.5-0.7,1-1.2,1.2c-2.4,1.1-4.2,2.7-5,4.4c-0.5,1-1.7,1.6-2.8,1.3
	c-4.3-0.9-9.1-1.4-14.2-1.4c-2.6,0-5.2,0.1-7.6,0.4c-0.1,0-0.2,0-0.3,0c-1.1,0-2.3-0.1-3.5-0.1c-2.2,0-4.4,0.1-6.5,0.2
	c-1.3,0.1-2.5-0.9-2.7-2.2c-1.5-7.5-5.8-12.9-10.9-12.9c-1.5,0-2.8,0.4-4.1,1.2c-0.7,0.5-1.6,0.6-2.4,0.2c-2.5-1.1-5.1-1.9-8-2.4
	c0-0.2,0.1-0.5,0.1-0.7c0-6.8-7.6-12.4-17-12.4c-0.6,0-1.2,0-1.8,0.1c-0.5,0-0.9,0-1.3-0.2c-4-1.8-8.7-2.9-13.8-2.9
	c-13.8,0-25,7.6-25,17c0,1.6,0.3,3.1,0.9,4.5c0.7,1.7-0.4,3.5-2.2,3.6c-22.9,1.4-40.7,11.8-40.7,24.3c0,10.2,11.7,18.9,28.3,22.6
	c1.1,0.2,1.8,1.1,2,2.1c0.7,3.7,2.5,6.7,4.9,8.4c0.4,0.3,0.7,0.6,0.9,1c4.3,7.9,14.7,13.4,26.9,13.4c7.5,0,14.3-2.1,19.4-5.5
	c0.5-0.3,1.1-0.5,1.7-0.5c0.1,0,0.3,0,0.4,0c0.7,0,1.4-0.2,2-0.4c1.2-0.5,2.5,0,3.2,1.1c3.6,5.5,11.4,9.4,20.5,9.4
	c1.1,0,2.2-0.1,3.2-0.2c0.1,0,0.3,0,0.4,0c0.3,0,0.5,0,0.8,0.1c0.4,0,0.9,0.2,1.3,0.4c4.5,2.9,10.4,4.7,16.9,4.7
	c11.1,0,20.5-5.2,24.1-12.5c1.4-0.5,2.2-0.8,3.5-1.3c3.6,1.6,8.5,2.6,13.9,2.8c1,0,1.8,0.6,2.2,1.5c2,3.9,5.7,6.6,9.9,6.6
	c1.8,0,3.4-0.5,4.9-1.3c0.6-0.3,1.3-0.4,1.9-0.2c3.8,1,7.9,1.5,12.2,1.5c15.8,0,29-7.1,31.9-16.6c0.3-1.1,1.2-1.8,2.4-1.9
	c16.8-1.2,29.2-5.6,29.2-10.8c0-1.6-1.1-3.1-3.2-4.4c-1.2-0.8-1.4-2.4-0.7-3.6c1.2-2.1,1.9-4.3,1.9-6.7c0,0,0,0,0,0
	c0-1.3,0.9-2.5,2.2-2.7C364.8,255.8,371.5,249.4,371.5,241.8z"/>
</svg>
