<?xml version="1.0" encoding="utf-8"?>
<!-- Generator: Adobe Illustrator 18.0.0, SVG Export Plug-In . SVG Version: 6.00 Build 0)  -->
<!DOCTYPE svg PUBLIC "-//W3C//DTD SVG 1.1//EN" "http://www.w3.org/Graphics/SVG/1.1/DTD/svg11.dtd">
<svg version="1.1" id="Layer_1" xmlns="http://www.w3.org/2000/svg" xmlns:xlink="http://www.w3.org/1999/xlink" x="0px" y="0px"
	 viewBox="0 0 500 500" enable-background="new 0 0 500 500" xml:space="preserve">
<path fill="#FFFFFF" d="M380.9,278.2c0-11.1-5.7-21.1-14.7-27.9c-3.4-2.6-6.1-5.9-7.1-9.8c-3.1-11.5-15.1-20-29.3-20
	c-2,0-4,0.2-5.9,0.5c-4.8,0.8-9.4-2-9.8-6.2c0-0.2,0-0.4-0.1-0.6c-1.8-16.4-17-29.6-36-31.4c-16.4-1.5-31.1,5.5-39,16.4
	c-2.6,3.6-7.5,5.5-12.4,4.7c-2.1-0.3-4.2-0.5-6.3-0.5c-12.8,0-24.1,5.8-30.4,14.5c-4,5.6-11.1,9-18.7,8.5c-2.7-0.2-5.4-0.2-8.2,0.1
	c-23.4,1.9-42.1,18.3-43.7,38.6c-2,24.4,20.4,44.7,48.4,44.7c2.5,0,4.9-0.2,7.3-0.5c5.6-0.7,11,1.6,13.6,5.9
	c5.7,9.2,17,15.5,29.9,15.5c9.6,0,18.3-3.5,24.5-9c2.6-2.3,6.5-2.8,9.8-1.4c4.4,2,9.4,3.1,14.8,3.1c6.1,0,11.8-1.5,16.7-4
	c2.6-1.4,5.9-1.1,8.2,0.6c5.5,4.1,12.7,6.6,20.6,6.6c9.1,0,17.3-3.3,23-8.6c1.7-1.6,4-2.6,6.4-2.8
	C364.1,313,380.9,297.3,380.9,278.2z"/>
</svg>
