<?xml version="1.0" encoding="utf-8"?>
<!-- Generator: Adobe Illustrator 18.0.0, SVG Export Plug-In . SVG Version: 6.00 Build 0)  -->
<!DOCTYPE svg PUBLIC "-//W3C//DTD SVG 1.1//EN" "http://www.w3.org/Graphics/SVG/1.1/DTD/svg11.dtd">
<svg version="1.1" id="Layer_1" xmlns="http://www.w3.org/2000/svg" xmlns:xlink="http://www.w3.org/1999/xlink" x="0px" y="0px"
	 viewBox="0 0 500 500" enable-background="new 0 0 500 500" xml:space="preserve">
<path fill="#FFFFFF" d="M403,299c0-7.4-30.4-13.3-68-13.3c0,0,0,0,0,0c-0.8,0-1.5-0.3-2.2-0.8c-6-4.6-15.1-8.3-26.1-10.4
	c-1.3-0.3-2.4-1.3-2.7-2.7c-2.3-12.3-20.4-21.9-42.4-21.9c-7.8,0-15.2,1.2-21.5,3.3c-1.1,0.4-2.3,0.1-3.2-0.6
	c-7-5.9-17.5-9.7-29.3-9.7c-5.9,0-11.6,1-16.6,2.7c-1,0.4-2.2,0.2-3.1-0.5c-5.5-3.8-13.1-6.2-21.6-6.2c-16.6,0-30.1,9.1-30.1,20.3
	c0,0.4,0,0.9,0.1,1.3c0.2,1.9-1.2,3.6-3,3.8c-22,2.4-38.4,11-38.4,21.4c0,6.5,6.4,12.3,16.6,16.3c1.5,0.6,2.4,2.1,2.2,3.7
	c-0.1,0.7-0.1,1.3-0.1,2c0,17.3,29.5,31.3,66,31.3c9.5,0,18.4-1,26.6-2.7c0.5-0.1,0.9-0.1,1.4,0c2.8,0.6,5.9,1.1,9.2,1.5
	c1.5,0.2,2.7,1.4,2.9,2.8c2,12.2,7.8,21,14.8,21c6.9,0,12.7-8.6,14.7-20.6c0.3-1.5,1.5-2.7,3-2.8c4.3-0.4,8.4-1,12.1-1.7
	c0.4-0.1,0.9-0.1,1.3,0c8.2,1.6,17.8,2.5,28.1,2.5c27.9,0,50.7-6.7,53.1-15.2c0.2-0.8,0.8-1.5,1.4-1.9c3.3-2.2,5.8-5.1,7.1-8.3
	c0.5-1.2,1.6-1.9,2.9-2C384.3,309.7,403,304.8,403,299z"/>
</svg>
