<?xml version="1.0" encoding="utf-8"?>
<!-- Generator: Adobe Illustrator 18.0.0, SVG Export Plug-In . SVG Version: 6.00 Build 0)  -->
<!DOCTYPE svg PUBLIC "-//W3C//DTD SVG 1.1//EN" "http://www.w3.org/Graphics/SVG/1.1/DTD/svg11.dtd">
<svg version="1.1" id="Layer_1" xmlns="http://www.w3.org/2000/svg" xmlns:xlink="http://www.w3.org/1999/xlink" x="0px" y="0px"
	 viewBox="0 0 200 200" enable-background="new 0 0 200 200" xml:space="preserve">
<circle fill="#FFFFFF" cx="100" cy="165" r="35"/>
<path fill="#FFFFFF" d="M100,0L100,0c-6.4,0-11.7,5.2-11.7,11.7V143c0,6.4,5.2,11.7,11.7,11.7h0c6.4,0,11.7-5.3,11.7-11.7V11.7
	C111.7,5.2,106.4,0,100,0z"/>
<path fill="#FFFFFF" d="M125.3,49.5h-13.8c-4,0-7.2-3.3-7.2-7.2v0c0-4,3.3-7.2,7.2-7.2h13.8c4,0,7.2,3.3,7.2,7.2v0
	C132.5,46.2,129.2,49.5,125.3,49.5z"/>
<path fill="#FFFFFF" d="M125.3,82.5h-13.8c-4,0-7.2-3.3-7.2-7.2v0c0-4,3.3-7.2,7.2-7.2h13.8c4,0,7.2,3.3,7.2,7.2v0
	C132.5,79.2,129.2,82.5,125.3,82.5z"/>
<path fill="#FFFFFF" d="M125.3,114.5h-13.8c-4,0-7.2-3.3-7.2-7.2v0c0-4,3.3-7.2,7.2-7.2h13.8c4,0,7.2,3.3,7.2,7.2v0
	C132.5,111.2,129.2,114.5,125.3,114.5z"/>
</svg>
