<?xml version="1.0" encoding="utf-8"?>
<!-- Generator: Adobe Illustrator 18.0.0, SVG Export Plug-In . SVG Version: 6.00 Build 0)  -->
<!DOCTYPE svg PUBLIC "-//W3C//DTD SVG 1.1//EN" "http://www.w3.org/Graphics/SVG/1.1/DTD/svg11.dtd">
<svg version="1.1" id="Layer_1" xmlns="http://www.w3.org/2000/svg" xmlns:xlink="http://www.w3.org/1999/xlink" x="0px" y="0px"
	 viewBox="0 0 438 282.7" enable-background="new 0 0 438 282.7" xml:space="preserve">
<polygon fill="#325019" points="428,221.3 394.7,141.3 377.3,106.7 381.3,98.7 393.3,89.3 402.7,73.3 398.2,58.7 377.3,48 
	337.3,38.7 304,30.7 285.3,24 272,13.3 248,3.3 224,0 186.7,3.3 144,16 109.3,30.7 86.7,44 61.3,62.7 30.7,85.3 0,97.3 33.3,105.3 
	74.7,118.7 113.3,130.7 154.7,144 194.7,149.3 248,150.7 296,142.7 332,130.7 354.7,118.7 365.3,105.3 381.3,132 421.3,218.7 
	438,282.7 438,236 "/>
</svg>
