<?xml version="1.0" encoding="utf-8"?>
<!-- Generator: Adobe Illustrator 18.0.0, SVG Export Plug-In . SVG Version: 6.00 Build 0)  -->
<!DOCTYPE svg PUBLIC "-//W3C//DTD SVG 1.1//EN" "http://www.w3.org/Graphics/SVG/1.1/DTD/svg11.dtd">
<svg version="1.1" id="Layer_1" xmlns="http://www.w3.org/2000/svg" xmlns:xlink="http://www.w3.org/1999/xlink" x="0px" y="0px"
	 viewBox="0 0 266.8 369.3" enable-background="new 0 0 266.8 369.3" xml:space="preserve">
<polygon fill="#325019" points="0,159.1 17,104 21,92 21,66.6 29,50.6 39.7,42.6 50.3,50.6 77,52 115.7,29.3 142.3,9.3 163.7,0 
	189,0 203.7,8 235.7,29.3 243.7,34.6 247.7,41.3 258.3,53.3 263.7,65.3 263.7,72 266.8,83.5 266.8,95.3 265.3,123 260,139.8 
	255.8,148.5 255.5,157.3 252.7,175.3 243.3,180 243.3,198 236.7,202.6 236,216.6 226,220.6 220,239.3 211.3,241.3 206,252 
	198.7,252 189.3,272.6 181.3,270.6 176.7,282.6 172,281.3 169.3,291.3 161.3,290 148,308.6 132.7,318.6 120,332 100.7,354.6 
	85.3,369.3 91.3,346 92,318 78,262.6 65,246 62.3,227.3 57.7,226 46,198.6 44,184.6 40,180.6 40,166.1 36.2,163 35,149.3 30,139.5 
	29.8,131.5 26.7,129 23.2,120.3 16.2,128.3 10.2,173.8 "/>
</svg>
