<?xml version="1.0" encoding="utf-8"?>
<!-- Generator: Adobe Illustrator 18.0.0, SVG Export Plug-In . SVG Version: 6.00 Build 0)  -->
<!DOCTYPE svg PUBLIC "-//W3C//DTD SVG 1.1//EN" "http://www.w3.org/Graphics/SVG/1.1/DTD/svg11.dtd">
<svg version="1.1" id="Layer_1" xmlns="http://www.w3.org/2000/svg" xmlns:xlink="http://www.w3.org/1999/xlink" x="0px" y="0px"
	 viewBox="3.7 199.5 445.5 202.7" enable-background="new 3.7 199.5 445.5 202.7" xml:space="preserve">
<polygon fill="#326419" points="447.4,402.2 445.4,390.4 446.1,377.4 445.4,374.4 446.9,370.4 445.7,364.2 448.7,359.7 446.2,351.4 
	449.2,346.1 445.7,340.9 447.3,337.1 446.9,323.2 444.6,321.9 443.4,313.9 441.1,312.7 435.6,306.6 436.1,297.4 424.2,283.7 
	412.2,277.2 398.3,272.9 372.5,263.4 347.3,255.4 344.3,247.1 332,238.6 296.2,216.2 274.8,206.5 230.8,199.5 174.3,212.5 
	66.9,272.1 54.7,283 31.7,307 15.7,329.6 7.7,346 3.7,356 6.7,379 16.4,352.2 35.9,317.4 59.2,289.9 84,292.4 151.7,281 
	209.2,265.8 235.2,288.5 260.7,301.5 301.2,316.4 347.2,320 347.7,315 358.2,316 360.7,312 377.2,301 391.7,317 422.7,357 
	435.5,384.9 "/>
</svg>
