<?xml version="1.0" encoding="utf-8"?>
<!-- Generator: Adobe Illustrator 18.0.0, SVG Export Plug-In . SVG Version: 6.00 Build 0)  -->
<!DOCTYPE svg PUBLIC "-//W3C//DTD SVG 1.1//EN" "http://www.w3.org/Graphics/SVG/1.1/DTD/svg11.dtd">
<svg version="1.1" id="Layer_1" xmlns="http://www.w3.org/2000/svg" xmlns:xlink="http://www.w3.org/1999/xlink" x="0px" y="0px"
	 viewBox="29 226.1 471 249" enable-background="new 29 226.1 471 249" xml:space="preserve">
<polyline fill="#326419" points="29,475.1 62,472.1 102,465.1 155,459.1 206,459.1 261,446.1 295,435.1 335,406.8 366,377.1 
	392,356.1 395,346.1 390,334.1 368,323.1 341,313.1 336,313.1 337,307.1 372,304.1 417,310.1 443,316.1 476,335.1 500,356.1 
	500,324.1 475,312.1 447,304.1 415,298.1 373,293.1 334,293.1 326,293.1 318,280.1 306,260.1 295,242.1 277.8,235.1 261,229.1 
	237.5,226.1 210,229.1 184,237.4 164,247.1 138,271.1 113,296.1 81,329.1 68,346.1 60,366.1 56,392.1 "/>
</svg>
