<?xml version="1.0" encoding="utf-8"?>
<!-- Generator: Adobe Illustrator 18.0.0, SVG Export Plug-In . SVG Version: 6.00 Build 0)  -->
<!DOCTYPE svg PUBLIC "-//W3C//DTD SVG 1.1//EN" "http://www.w3.org/Graphics/SVG/1.1/DTD/svg11.dtd">
<svg version="1.1" id="Layer_1" xmlns="http://www.w3.org/2000/svg" xmlns:xlink="http://www.w3.org/1999/xlink" x="0px" y="0px"
	 viewBox="0 0 700 700" enable-background="new 0 0 700 700" xml:space="preserve">
<linearGradient id="SVGID_1_" gradientUnits="userSpaceOnUse" x1="183.6476" y1="542.8734" x2="517.4037" y2="542.8734">
	<stop  offset="0" style="stop-color:#642247"/>
	<stop  offset="1" style="stop-color:#9C4E5D"/>
</linearGradient>
<path fill="url(#SVGID_1_)" d="M349.9,417.3c-69,0-129.9-5.1-166.2-12.8l53.5,246.2v0c0,17,51,30.8,113.9,30.8
	s113.9-13.8,113.9-30.8l52.6-246.5C481.3,412.1,419.8,417.3,349.9,417.3z"/>
<g opacity="0.5">
	<linearGradient id="SVGID_2_" gradientUnits="userSpaceOnUse" x1="350.718" y1="448.325" x2="350.718" y2="409.3026">
		<stop  offset="0" style="stop-color:#561B40"/>
		<stop  offset="1" style="stop-color:#561B40"/>
	</linearGradient>
	<path fill="url(#SVGID_2_)" d="M512.8,426.1l3.6-16.8c-36.1,9.5-97.5,15.7-167.2,15.7c-67.8,0-127.7-5.9-164.2-14.9l0.3,1.9
		l3.3,15.3c33.4,12.6,92.9,21.1,160.6,21.1C419.1,448.3,480,439.4,512.8,426.1z"/>
</g>
<g>
	<linearGradient id="SVGID_3_" gradientUnits="userSpaceOnUse" x1="161.5948" y1="390.2623" x2="539.4565" y2="390.2623">
		<stop  offset="0" style="stop-color:#561B40"/>
		<stop  offset="1" style="stop-color:#9C4E5D"/>
	</linearGradient>
	<path fill="url(#SVGID_3_)" d="M350,436.7c82,0,151.7-10.2,178.1-24.5l11.4-68.3c-6.2,19.4-88.4,34.7-188.9,34.7
		c-100.4,0-182.6-15.3-188.9-34.6l11.7,69C200.7,426.8,269.5,436.7,350,436.7z"/>
</g>
<linearGradient id="SVGID_4_" gradientUnits="userSpaceOnUse" x1="161.1923" y1="346.6058" x2="539.8589" y2="346.6058">
	<stop  offset="0" style="stop-color:#BA6C6F"/>
	<stop  offset="1" style="stop-color:#893D4C"/>
</linearGradient>
<ellipse fill="url(#SVGID_4_)" cx="350.5" cy="346.6" rx="189.3" ry="32.9"/>
<linearGradient id="SVGID_5_" gradientUnits="userSpaceOnUse" x1="174.7568" y1="345.9928" x2="524.5847" y2="345.9928">
	<stop  offset="0" style="stop-color:#9C4E5D"/>
	<stop  offset="1" style="stop-color:#561B40"/>
</linearGradient>
<ellipse fill="url(#SVGID_5_)" cx="349.7" cy="346" rx="174.9" ry="25"/>
<path fill="#0F1533" d="M350.7,333c-74.8,0-139.4,12.6-164.4,22.1c25.4,9.3,88.8,15.9,163.1,15.9c74.8,0,138.6-6.7,163.6-16.1
	C487.6,345.5,425,333,350.7,333z"/>
<linearGradient id="SVGID_6_" gradientUnits="userSpaceOnUse" x1="335.4105" y1="178.6424" x2="363.931" y2="178.6424">
	<stop  offset="0" style="stop-color:#19644C"/>
	<stop  offset="1" style="stop-color:#19504C"/>
</linearGradient>
<path fill="url(#SVGID_6_)" d="M335.4,2.3V351h0c0.2,2.2,6.5,3.9,14.2,3.9c7.8,0,14.1-1.7,14.2-3.9h0V2.3H335.4z"/>
</svg>
