<?xml version="1.0" encoding="utf-8"?>
<!-- Generator: Adobe Illustrator 18.0.0, SVG Export Plug-In . SVG Version: 6.00 Build 0)  -->
<!DOCTYPE svg PUBLIC "-//W3C//DTD SVG 1.1//EN" "http://www.w3.org/Graphics/SVG/1.1/DTD/svg11.dtd">
<svg version="1.1" id="Layer_1" xmlns="http://www.w3.org/2000/svg" xmlns:xlink="http://www.w3.org/1999/xlink" x="0px" y="0px"
	 viewBox="0 0 300 300" enable-background="new 0 0 300 300" xml:space="preserve">
<radialGradient id="SVGID_1_" cx="150.3233" cy="153.0668" r="66.6667" gradientUnits="userSpaceOnUse">
	<stop  offset="0.4082" style="stop-color:#453841"/>
	<stop  offset="0.58" style="stop-color:#353047"/>
	<stop  offset="0.7832" style="stop-color:#2A2B4B"/>
	<stop  offset="1" style="stop-color:#26294C"/>
</radialGradient>
<circle fill="url(#SVGID_1_)" cx="150.3" cy="153.1" r="66.7"/>
<g>
	<g>
		
			<linearGradient id="SVGID_2_" gradientUnits="userSpaceOnUse" x1="170.9894" y1="15.8599" x2="179.6949" y2="98.687" gradientTransform="matrix(-0.5 0.866 -0.866 -0.5 355.6559 95.2442)">
			<stop  offset="0.4082" style="stop-color:#E6E950"/>
			<stop  offset="0.4815" style="stop-color:#DFD651"/>
			<stop  offset="0.6052" style="stop-color:#D5BB52"/>
			<stop  offset="0.7317" style="stop-color:#CEA853"/>
			<stop  offset="0.8616" style="stop-color:#C99D54"/>
			<stop  offset="1" style="stop-color:#C89954"/>
		</linearGradient>
		<path fill="url(#SVGID_2_)" d="M202.2,221.1c-21.3-21.3-20-27.6-15.3-32.3c4.7-4.7,11-6,32.3,15.3s34.7,42.3,30.1,47
			S223.5,242.4,202.2,221.1z"/>
	</g>
	<g>
		
			<linearGradient id="SVGID_3_" gradientUnits="userSpaceOnUse" x1="170.9894" y1="15.8599" x2="179.6949" y2="98.687" gradientTransform="matrix(-0.866 0.5 -0.5 -0.866 355.6714 205.2804)">
			<stop  offset="0.4082" style="stop-color:#E6E950"/>
			<stop  offset="0.4815" style="stop-color:#DFD651"/>
			<stop  offset="0.6052" style="stop-color:#D5BB52"/>
			<stop  offset="0.7317" style="stop-color:#CEA853"/>
			<stop  offset="0.8616" style="stop-color:#C99D54"/>
			<stop  offset="1" style="stop-color:#C89954"/>
		</linearGradient>
		<path fill="url(#SVGID_3_)" d="M159.9,237.5c-7.8-29.1-3.5-33.9,2.9-35.6s12.5,0.3,20.3,29.4s8.9,54,2.5,55.7
			C179.2,288.8,167.7,266.6,159.9,237.5z"/>
	</g>
	<g>
		
			<linearGradient id="SVGID_4_" gradientUnits="userSpaceOnUse" x1="170.9894" y1="15.8599" x2="179.6949" y2="98.687" gradientTransform="matrix(-1 0 0 -1 300.6667 300.5822)">
			<stop  offset="0.4082" style="stop-color:#E6E950"/>
			<stop  offset="0.4815" style="stop-color:#DFD651"/>
			<stop  offset="0.6052" style="stop-color:#D5BB52"/>
			<stop  offset="0.7317" style="stop-color:#CEA853"/>
			<stop  offset="0.8616" style="stop-color:#C99D54"/>
			<stop  offset="1" style="stop-color:#C89954"/>
		</linearGradient>
		<path fill="url(#SVGID_4_)" d="M115,230.6c7.8-29.1,13.9-31.1,20.3-29.4s10.7,6.6,2.9,35.6s-19.3,51.3-25.7,49.5
			S107.2,259.7,115,230.6z"/>
	</g>
	<g>
		
			<linearGradient id="SVGID_5_" gradientUnits="userSpaceOnUse" x1="170.9894" y1="15.8599" x2="179.6949" y2="98.687" gradientTransform="matrix(-0.866 -0.5 0.5 -0.866 205.3803 355.6137)">
			<stop  offset="0.4082" style="stop-color:#E6E950"/>
			<stop  offset="0.4815" style="stop-color:#DFD651"/>
			<stop  offset="0.6052" style="stop-color:#D5BB52"/>
			<stop  offset="0.7317" style="stop-color:#CEA853"/>
			<stop  offset="0.8616" style="stop-color:#C99D54"/>
			<stop  offset="1" style="stop-color:#C89954"/>
		</linearGradient>
		<path fill="url(#SVGID_5_)" d="M79.6,202.2c21.3-21.3,27.6-20,32.3-15.3c4.7,4.7,6,11-15.3,32.3s-42.3,34.7-47,30.1
			C44.8,244.5,58.3,223.4,79.6,202.2z"/>
	</g>
	<g>
		
			<linearGradient id="SVGID_6_" gradientUnits="userSpaceOnUse" x1="170.9894" y1="15.8599" x2="179.6949" y2="98.687" gradientTransform="matrix(-0.5 -0.866 0.866 -0.5 95.3441 355.6292)">
			<stop  offset="0.4082" style="stop-color:#E6E950"/>
			<stop  offset="0.4815" style="stop-color:#DFD651"/>
			<stop  offset="0.6052" style="stop-color:#D5BB52"/>
			<stop  offset="0.7317" style="stop-color:#CEA853"/>
			<stop  offset="0.8616" style="stop-color:#C99D54"/>
			<stop  offset="1" style="stop-color:#C89954"/>
		</linearGradient>
		<path fill="url(#SVGID_6_)" d="M63.1,159.8c29.1-7.8,33.9-3.5,35.6,2.9c1.7,6.4-0.3,12.5-29.4,20.3s-54,8.9-55.7,2.5
			C11.9,179.1,34,167.6,63.1,159.8z"/>
	</g>
	<g>
		
			<linearGradient id="SVGID_7_" gradientUnits="userSpaceOnUse" x1="170.9894" y1="15.8599" x2="179.6949" y2="98.687" gradientTransform="matrix(4.489770e-011 -1 1 4.489770e-011 4.222584e-002 300.6245)">
			<stop  offset="0.4082" style="stop-color:#E6E950"/>
			<stop  offset="0.4815" style="stop-color:#DFD651"/>
			<stop  offset="0.6052" style="stop-color:#D5BB52"/>
			<stop  offset="0.7317" style="stop-color:#CEA853"/>
			<stop  offset="0.8616" style="stop-color:#C99D54"/>
			<stop  offset="1" style="stop-color:#C89954"/>
		</linearGradient>
		<path fill="url(#SVGID_7_)" d="M70,114.9c29.1,7.8,31.1,13.9,29.4,20.3c-1.7,6.4-6.6,10.7-35.6,2.9s-51.3-19.3-49.5-25.7
			C16,106,41,107.1,70,114.9z"/>
	</g>
	<g>
		
			<linearGradient id="SVGID_8_" gradientUnits="userSpaceOnUse" x1="170.9894" y1="15.8599" x2="179.6949" y2="98.687" gradientTransform="matrix(0.5 -0.866 0.866 0.5 -54.9893 205.338)">
			<stop  offset="0.4082" style="stop-color:#E6E950"/>
			<stop  offset="0.4815" style="stop-color:#DFD651"/>
			<stop  offset="0.6052" style="stop-color:#D5BB52"/>
			<stop  offset="0.7317" style="stop-color:#CEA853"/>
			<stop  offset="0.8616" style="stop-color:#C99D54"/>
			<stop  offset="1" style="stop-color:#C89954"/>
		</linearGradient>
		<path fill="url(#SVGID_8_)" d="M98.5,79.5c21.3,21.3,20,27.6,15.3,32.3c-4.7,4.7-11,6-32.3-15.3s-34.7-42.3-30.1-47
			S77.2,58.2,98.5,79.5z"/>
	</g>
	<g>
		
			<linearGradient id="SVGID_9_" gradientUnits="userSpaceOnUse" x1="170.9894" y1="15.8599" x2="179.6949" y2="98.687" gradientTransform="matrix(0.866 -0.5 0.5 0.866 -55.0047 95.3019)">
			<stop  offset="0.4082" style="stop-color:#E6E950"/>
			<stop  offset="0.4815" style="stop-color:#DFD651"/>
			<stop  offset="0.6052" style="stop-color:#D5BB52"/>
			<stop  offset="0.7317" style="stop-color:#CEA853"/>
			<stop  offset="0.8616" style="stop-color:#C99D54"/>
			<stop  offset="1" style="stop-color:#C89954"/>
		</linearGradient>
		<path fill="url(#SVGID_9_)" d="M140.8,63.1c7.8,29.1,3.5,33.9-2.9,35.6c-6.4,1.7-12.5-0.3-20.3-29.4s-8.9-54-2.5-55.7
			S133,34,140.8,63.1z"/>
	</g>
	<g>
		<linearGradient id="SVGID_10_" gradientUnits="userSpaceOnUse" x1="170.9894" y1="15.8599" x2="179.6949" y2="98.687">
			<stop  offset="0.4082" style="stop-color:#E6E950"/>
			<stop  offset="0.4815" style="stop-color:#DFD651"/>
			<stop  offset="0.6052" style="stop-color:#D5BB52"/>
			<stop  offset="0.7317" style="stop-color:#CEA853"/>
			<stop  offset="0.8616" style="stop-color:#C99D54"/>
			<stop  offset="1" style="stop-color:#C89954"/>
		</linearGradient>
		<path fill="url(#SVGID_10_)" d="M185.7,70c-7.8,29.1-13.9,31.1-20.3,29.4s-10.7-6.6-2.9-35.6s19.3-51.3,25.7-49.5
			S193.5,40.9,185.7,70z"/>
	</g>
	<g>
		
			<linearGradient id="SVGID_11_" gradientUnits="userSpaceOnUse" x1="170.9894" y1="15.8599" x2="179.6949" y2="98.687" gradientTransform="matrix(0.866 0.5 -0.5 0.866 95.2864 -55.0315)">
			<stop  offset="0.4082" style="stop-color:#E6E950"/>
			<stop  offset="0.4815" style="stop-color:#DFD651"/>
			<stop  offset="0.6052" style="stop-color:#D5BB52"/>
			<stop  offset="0.7317" style="stop-color:#CEA853"/>
			<stop  offset="0.8616" style="stop-color:#C99D54"/>
			<stop  offset="1" style="stop-color:#C89954"/>
		</linearGradient>
		<path fill="url(#SVGID_11_)" d="M221.1,98.4c-21.3,21.3-27.6,20-32.3,15.3c-4.7-4.7-6-11,15.3-32.3s42.3-34.7,47-30.1
			S242.4,77.1,221.1,98.4z"/>
	</g>
	<g>
		
			<linearGradient id="SVGID_12_" gradientUnits="userSpaceOnUse" x1="170.9894" y1="15.8599" x2="179.6949" y2="98.687" gradientTransform="matrix(0.5 0.866 -0.866 0.5 205.3226 -55.0469)">
			<stop  offset="0.4082" style="stop-color:#E6E950"/>
			<stop  offset="0.4815" style="stop-color:#DFD651"/>
			<stop  offset="0.6052" style="stop-color:#D5BB52"/>
			<stop  offset="0.7317" style="stop-color:#CEA853"/>
			<stop  offset="0.8616" style="stop-color:#C99D54"/>
			<stop  offset="1" style="stop-color:#C89954"/>
		</linearGradient>
		<path fill="url(#SVGID_12_)" d="M237.6,140.8c-29.1,7.8-33.9,3.5-35.6-2.9c-1.7-6.4,0.3-12.5,29.4-20.3s54-8.9,55.7-2.5
			C288.8,121.5,266.6,133,237.6,140.8z"/>
	</g>
	<g>
		
			<linearGradient id="SVGID_13_" gradientUnits="userSpaceOnUse" x1="170.9894" y1="15.8599" x2="179.6949" y2="98.687" gradientTransform="matrix(-4.489770e-011 1 -1 -4.489770e-011 300.6245 -4.222511e-002)">
			<stop  offset="0.4082" style="stop-color:#E6E950"/>
			<stop  offset="0.4815" style="stop-color:#DFD651"/>
			<stop  offset="0.6052" style="stop-color:#D5BB52"/>
			<stop  offset="0.7317" style="stop-color:#CEA853"/>
			<stop  offset="0.8616" style="stop-color:#C99D54"/>
			<stop  offset="1" style="stop-color:#C89954"/>
		</linearGradient>
		<path fill="url(#SVGID_13_)" d="M230.6,185.7c-29.1-7.8-31.1-13.9-29.4-20.3c1.7-6.4,6.6-10.7,35.6-2.9s51.3,19.3,49.5,25.7
			C284.7,194.6,259.7,193.4,230.6,185.7z"/>
	</g>
	<g>
		
			<linearGradient id="SVGID_14_" gradientUnits="userSpaceOnUse" x1="170.9894" y1="15.8599" x2="179.6949" y2="98.687" gradientTransform="matrix(-0.5 0.866 -0.866 -0.5 355.6559 95.2442)">
			<stop  offset="0.4082" style="stop-color:#E6E950"/>
			<stop  offset="0.4815" style="stop-color:#DFD651"/>
			<stop  offset="0.6052" style="stop-color:#D5BB52"/>
			<stop  offset="0.7317" style="stop-color:#CEA853"/>
			<stop  offset="0.8616" style="stop-color:#C99D54"/>
			<stop  offset="1" style="stop-color:#C89954"/>
		</linearGradient>
		<path fill="url(#SVGID_14_)" d="M202.2,221.1c-21.3-21.3-20-27.6-15.3-32.3c4.7-4.7,11-6,32.3,15.3s34.7,42.3,30.1,47
			S223.5,242.4,202.2,221.1z"/>
	</g>
	<g>
		
			<linearGradient id="SVGID_15_" gradientUnits="userSpaceOnUse" x1="170.9894" y1="15.8599" x2="179.6949" y2="98.687" gradientTransform="matrix(-0.866 0.5 -0.5 -0.866 355.6714 205.2804)">
			<stop  offset="0.4082" style="stop-color:#E6E950"/>
			<stop  offset="0.4815" style="stop-color:#DFD651"/>
			<stop  offset="0.6052" style="stop-color:#D5BB52"/>
			<stop  offset="0.7317" style="stop-color:#CEA853"/>
			<stop  offset="0.8616" style="stop-color:#C99D54"/>
			<stop  offset="1" style="stop-color:#C89954"/>
		</linearGradient>
		<path fill="url(#SVGID_15_)" d="M159.9,237.5c-7.8-29.1-3.5-33.9,2.9-35.6s12.5,0.3,20.3,29.4s8.9,54,2.5,55.7
			C179.2,288.8,167.7,266.6,159.9,237.5z"/>
	</g>
	<g>
		
			<linearGradient id="SVGID_16_" gradientUnits="userSpaceOnUse" x1="170.9894" y1="15.8599" x2="179.6949" y2="98.687" gradientTransform="matrix(-1 0 0 -1 300.6667 300.5822)">
			<stop  offset="0.4082" style="stop-color:#E6E950"/>
			<stop  offset="0.4815" style="stop-color:#DFD651"/>
			<stop  offset="0.6052" style="stop-color:#D5BB52"/>
			<stop  offset="0.7317" style="stop-color:#CEA853"/>
			<stop  offset="0.8616" style="stop-color:#C99D54"/>
			<stop  offset="1" style="stop-color:#C89954"/>
		</linearGradient>
		<path fill="url(#SVGID_16_)" d="M115,230.6c7.8-29.1,13.9-31.1,20.3-29.4s10.7,6.6,2.9,35.6s-19.3,51.3-25.7,49.5
			S107.2,259.7,115,230.6z"/>
	</g>
	<g>
		
			<linearGradient id="SVGID_17_" gradientUnits="userSpaceOnUse" x1="170.9894" y1="15.8599" x2="179.6949" y2="98.687" gradientTransform="matrix(-0.866 -0.5 0.5 -0.866 205.3803 355.6137)">
			<stop  offset="0.4082" style="stop-color:#E6E950"/>
			<stop  offset="0.4815" style="stop-color:#DFD651"/>
			<stop  offset="0.6052" style="stop-color:#D5BB52"/>
			<stop  offset="0.7317" style="stop-color:#CEA853"/>
			<stop  offset="0.8616" style="stop-color:#C99D54"/>
			<stop  offset="1" style="stop-color:#C89954"/>
		</linearGradient>
		<path fill="url(#SVGID_17_)" d="M79.6,202.2c21.3-21.3,27.6-20,32.3-15.3c4.7,4.7,6,11-15.3,32.3s-42.3,34.7-47,30.1
			C44.8,244.5,58.3,223.4,79.6,202.2z"/>
	</g>
	<g>
		
			<linearGradient id="SVGID_18_" gradientUnits="userSpaceOnUse" x1="170.9894" y1="15.8599" x2="179.6949" y2="98.687" gradientTransform="matrix(-0.5 -0.866 0.866 -0.5 95.3441 355.6292)">
			<stop  offset="0.4082" style="stop-color:#E6E950"/>
			<stop  offset="0.4815" style="stop-color:#DFD651"/>
			<stop  offset="0.6052" style="stop-color:#D5BB52"/>
			<stop  offset="0.7317" style="stop-color:#CEA853"/>
			<stop  offset="0.8616" style="stop-color:#C99D54"/>
			<stop  offset="1" style="stop-color:#C89954"/>
		</linearGradient>
		<path fill="url(#SVGID_18_)" d="M63.1,159.8c29.1-7.8,33.9-3.5,35.6,2.9c1.7,6.4-0.3,12.5-29.4,20.3s-54,8.9-55.7,2.5
			C11.9,179.1,34,167.6,63.1,159.8z"/>
	</g>
	<g>
		
			<linearGradient id="SVGID_19_" gradientUnits="userSpaceOnUse" x1="170.9894" y1="15.8599" x2="179.6949" y2="98.687" gradientTransform="matrix(4.489770e-011 -1 1 4.489770e-011 4.222584e-002 300.6245)">
			<stop  offset="0.4082" style="stop-color:#E6E950"/>
			<stop  offset="0.4815" style="stop-color:#DFD651"/>
			<stop  offset="0.6052" style="stop-color:#D5BB52"/>
			<stop  offset="0.7317" style="stop-color:#CEA853"/>
			<stop  offset="0.8616" style="stop-color:#C99D54"/>
			<stop  offset="1" style="stop-color:#C89954"/>
		</linearGradient>
		<path fill="url(#SVGID_19_)" d="M70,114.9c29.1,7.8,31.1,13.9,29.4,20.3c-1.7,6.4-6.6,10.7-35.6,2.9s-51.3-19.3-49.5-25.7
			C16,106,41,107.1,70,114.9z"/>
	</g>
	<g>
		
			<linearGradient id="SVGID_20_" gradientUnits="userSpaceOnUse" x1="170.9894" y1="15.8599" x2="179.6949" y2="98.687" gradientTransform="matrix(0.5 -0.866 0.866 0.5 -54.9893 205.338)">
			<stop  offset="0.4082" style="stop-color:#E6E950"/>
			<stop  offset="0.4815" style="stop-color:#DFD651"/>
			<stop  offset="0.6052" style="stop-color:#D5BB52"/>
			<stop  offset="0.7317" style="stop-color:#CEA853"/>
			<stop  offset="0.8616" style="stop-color:#C99D54"/>
			<stop  offset="1" style="stop-color:#C89954"/>
		</linearGradient>
		<path fill="url(#SVGID_20_)" d="M98.5,79.5c21.3,21.3,20,27.6,15.3,32.3c-4.7,4.7-11,6-32.3-15.3s-34.7-42.3-30.1-47
			S77.2,58.2,98.5,79.5z"/>
	</g>
	<g>
		
			<linearGradient id="SVGID_21_" gradientUnits="userSpaceOnUse" x1="170.9894" y1="15.8599" x2="179.6949" y2="98.687" gradientTransform="matrix(0.866 -0.5 0.5 0.866 -55.0047 95.3019)">
			<stop  offset="0.4082" style="stop-color:#E6E950"/>
			<stop  offset="0.4815" style="stop-color:#DFD651"/>
			<stop  offset="0.6052" style="stop-color:#D5BB52"/>
			<stop  offset="0.7317" style="stop-color:#CEA853"/>
			<stop  offset="0.8616" style="stop-color:#C99D54"/>
			<stop  offset="1" style="stop-color:#C89954"/>
		</linearGradient>
		<path fill="url(#SVGID_21_)" d="M140.8,63.1c7.8,29.1,3.5,33.9-2.9,35.6c-6.4,1.7-12.5-0.3-20.3-29.4s-8.9-54-2.5-55.7
			S133,34,140.8,63.1z"/>
	</g>
	<g>
		<linearGradient id="SVGID_22_" gradientUnits="userSpaceOnUse" x1="170.9894" y1="15.8599" x2="179.6949" y2="98.687">
			<stop  offset="0.4082" style="stop-color:#E6E950"/>
			<stop  offset="0.4815" style="stop-color:#DFD651"/>
			<stop  offset="0.6052" style="stop-color:#D5BB52"/>
			<stop  offset="0.7317" style="stop-color:#CEA853"/>
			<stop  offset="0.8616" style="stop-color:#C99D54"/>
			<stop  offset="1" style="stop-color:#C89954"/>
		</linearGradient>
		<path fill="url(#SVGID_22_)" d="M185.7,70c-7.8,29.1-13.9,31.1-20.3,29.4s-10.7-6.6-2.9-35.6s19.3-51.3,25.7-49.5
			S193.5,40.9,185.7,70z"/>
	</g>
</g>
<g>
	<g>
		
			<linearGradient id="SVGID_23_" gradientUnits="userSpaceOnUse" x1="151.8205" y1="-55.0774" x2="160.5259" y2="27.7497" gradientTransform="matrix(-0.7071 0.7071 -0.7071 -0.7071 298.8589 113.3644)">
			<stop  offset="0.4082" style="stop-color:#E6E950"/>
			<stop  offset="0.4815" style="stop-color:#DFD651"/>
			<stop  offset="0.6052" style="stop-color:#D5BB52"/>
			<stop  offset="0.7317" style="stop-color:#CEA853"/>
			<stop  offset="0.8616" style="stop-color:#C99D54"/>
			<stop  offset="1" style="stop-color:#C89954"/>
		</linearGradient>
		<path fill="url(#SVGID_23_)" d="M181.8,231.8c-15-26.1-12.2-31.8-6.4-35.2c5.7-3.3,12.2-2.9,27.2,23.2s22.6,49.9,16.9,53.2
			C213.7,276.3,196.8,257.9,181.8,231.8z"/>
	</g>
	<g>
		
			<linearGradient id="SVGID_24_" gradientUnits="userSpaceOnUse" x1="131.528" y1="-52.4023" x2="140.2335" y2="30.4249" gradientTransform="matrix(-0.9659 0.2588 -0.2588 -0.9659 278.3247 200.5381)">
			<stop  offset="0.4082" style="stop-color:#E6E950"/>
			<stop  offset="0.4815" style="stop-color:#DFD651"/>
			<stop  offset="0.6052" style="stop-color:#D5BB52"/>
			<stop  offset="0.7317" style="stop-color:#CEA853"/>
			<stop  offset="0.8616" style="stop-color:#C99D54"/>
			<stop  offset="1" style="stop-color:#C89954"/>
		</linearGradient>
		<path fill="url(#SVGID_24_)" d="M136.6,236.7c0-30.1,5.4-33.7,12-33.7c6.6,0,12,3.6,12,33.7s-5.4,54.5-12,54.5
			C142,291.2,136.6,266.8,136.6,236.7z"/>
	</g>
	<g>
		
			<linearGradient id="SVGID_25_" gradientUnits="userSpaceOnUse" x1="115.2918" y1="-39.9393" x2="123.9973" y2="42.8879" gradientTransform="matrix(-0.9659 -0.2588 0.2588 -0.9659 216.9548 265.7658)">
			<stop  offset="0.4082" style="stop-color:#E6E950"/>
			<stop  offset="0.4815" style="stop-color:#DFD651"/>
			<stop  offset="0.6052" style="stop-color:#D5BB52"/>
			<stop  offset="0.7317" style="stop-color:#CEA853"/>
			<stop  offset="0.8616" style="stop-color:#C99D54"/>
			<stop  offset="1" style="stop-color:#C89954"/>
		</linearGradient>
		<path fill="url(#SVGID_25_)" d="M95.1,218.4c15-26.1,21.5-26.5,27.2-23.2c5.7,3.3,8.6,9.1-6.4,35.2s-31.9,44.5-37.6,41.2
			C72.5,268.3,80,244.5,95.1,218.4z"/>
	</g>
	<g>
		
			<linearGradient id="SVGID_26_" gradientUnits="userSpaceOnUse" x1="107.4623" y1="-21.0279" x2="116.1678" y2="61.7992" gradientTransform="matrix(-0.7071 -0.7071 0.7071 -0.7071 131.193 291.5695)">
			<stop  offset="0.4082" style="stop-color:#E6E950"/>
			<stop  offset="0.4815" style="stop-color:#DFD651"/>
			<stop  offset="0.6052" style="stop-color:#D5BB52"/>
			<stop  offset="0.7317" style="stop-color:#CEA853"/>
			<stop  offset="0.8616" style="stop-color:#C99D54"/>
			<stop  offset="1" style="stop-color:#C89954"/>
		</linearGradient>
		<path fill="url(#SVGID_26_)" d="M68.2,181.8c26.1-15,31.8-12.2,35.2-6.4c3.3,5.7,2.9,12.2-23.2,27.2S30.3,225.2,27,219.4
			C23.7,213.7,42.1,196.8,68.2,181.8z"/>
	</g>
	<g>
		
			<linearGradient id="SVGID_27_" gradientUnits="userSpaceOnUse" x1="110.1374" y1="-0.7355" x2="118.8429" y2="82.0917" gradientTransform="matrix(-0.2588 -0.9659 0.9659 -0.2588 44.0193 271.0354)">
			<stop  offset="0.4082" style="stop-color:#E6E950"/>
			<stop  offset="0.4815" style="stop-color:#DFD651"/>
			<stop  offset="0.6052" style="stop-color:#D5BB52"/>
			<stop  offset="0.7317" style="stop-color:#CEA853"/>
			<stop  offset="0.8616" style="stop-color:#C99D54"/>
			<stop  offset="1" style="stop-color:#C89954"/>
		</linearGradient>
		<path fill="url(#SVGID_27_)" d="M63.3,136.6c30.1,0,33.7,5.4,33.7,12c0,6.6-3.6,12-33.7,12s-54.5-5.4-54.5-12
			C8.8,142,33.2,136.6,63.3,136.6z"/>
	</g>
	<g>
		
			<linearGradient id="SVGID_28_" gradientUnits="userSpaceOnUse" x1="122.6004" y1="15.5008" x2="131.3059" y2="98.3279" gradientTransform="matrix(0.2588 -0.9659 0.9659 0.2588 -21.2084 209.6654)">
			<stop  offset="0.4082" style="stop-color:#E6E950"/>
			<stop  offset="0.4815" style="stop-color:#DFD651"/>
			<stop  offset="0.6052" style="stop-color:#D5BB52"/>
			<stop  offset="0.7317" style="stop-color:#CEA853"/>
			<stop  offset="0.8616" style="stop-color:#C99D54"/>
			<stop  offset="1" style="stop-color:#C89954"/>
		</linearGradient>
		<path fill="url(#SVGID_28_)" d="M81.6,95.1c26.1,15,26.5,21.5,23.2,27.2c-3.3,5.7-9.1,8.6-35.2-6.4S25.1,83.9,28.4,78.2
			C31.7,72.5,55.5,80,81.6,95.1z"/>
	</g>
	<g>
		
			<linearGradient id="SVGID_29_" gradientUnits="userSpaceOnUse" x1="141.5118" y1="23.3303" x2="150.2173" y2="106.1574" gradientTransform="matrix(0.7071 -0.7071 0.7071 0.7071 -47.0121 123.9037)">
			<stop  offset="0.4082" style="stop-color:#E6E950"/>
			<stop  offset="0.4815" style="stop-color:#DFD651"/>
			<stop  offset="0.6052" style="stop-color:#D5BB52"/>
			<stop  offset="0.7317" style="stop-color:#CEA853"/>
			<stop  offset="0.8616" style="stop-color:#C99D54"/>
			<stop  offset="1" style="stop-color:#C89954"/>
		</linearGradient>
		<path fill="url(#SVGID_29_)" d="M118.2,68.2c15,26.1,12.2,31.8,6.4,35.2c-5.7,3.3-12.2,2.9-27.2-23.2S74.8,30.3,80.6,27
			S103.2,42.1,118.2,68.2z"/>
	</g>
	<g>
		
			<linearGradient id="SVGID_30_" gradientUnits="userSpaceOnUse" x1="161.8042" y1="20.6551" x2="170.5097" y2="103.4822" gradientTransform="matrix(0.9659 -0.2588 0.2588 0.9659 -26.478 36.7299)">
			<stop  offset="0.4082" style="stop-color:#E6E950"/>
			<stop  offset="0.4815" style="stop-color:#DFD651"/>
			<stop  offset="0.6052" style="stop-color:#D5BB52"/>
			<stop  offset="0.7317" style="stop-color:#CEA853"/>
			<stop  offset="0.8616" style="stop-color:#C99D54"/>
			<stop  offset="1" style="stop-color:#C89954"/>
		</linearGradient>
		<path fill="url(#SVGID_30_)" d="M163.4,63.3c0,30.1-5.4,33.7-12,33.7s-12-3.6-12-33.7s5.4-54.5,12-54.5S163.4,33.2,163.4,63.3z"/>
	</g>
	<g>
		
			<linearGradient id="SVGID_31_" gradientUnits="userSpaceOnUse" x1="178.0405" y1="8.1921" x2="186.746" y2="91.0193" gradientTransform="matrix(0.9659 0.2588 -0.2588 0.9659 34.892 -28.4977)">
			<stop  offset="0.4082" style="stop-color:#E6E950"/>
			<stop  offset="0.4815" style="stop-color:#DFD651"/>
			<stop  offset="0.6052" style="stop-color:#D5BB52"/>
			<stop  offset="0.7317" style="stop-color:#CEA853"/>
			<stop  offset="0.8616" style="stop-color:#C99D54"/>
			<stop  offset="1" style="stop-color:#C89954"/>
		</linearGradient>
		<path fill="url(#SVGID_31_)" d="M204.9,81.6c-15,26.1-21.5,26.5-27.2,23.2c-5.7-3.3-8.6-9.1,6.4-35.2s31.9-44.5,37.6-41.2
			C227.5,31.7,220,55.5,204.9,81.6z"/>
	</g>
	<g>
		
			<linearGradient id="SVGID_32_" gradientUnits="userSpaceOnUse" x1="185.8699" y1="-10.7192" x2="194.5754" y2="72.1079" gradientTransform="matrix(0.7071 0.7071 -0.7071 0.7071 120.6537 -54.3015)">
			<stop  offset="0.4082" style="stop-color:#E6E950"/>
			<stop  offset="0.4815" style="stop-color:#DFD651"/>
			<stop  offset="0.6052" style="stop-color:#D5BB52"/>
			<stop  offset="0.7317" style="stop-color:#CEA853"/>
			<stop  offset="0.8616" style="stop-color:#C99D54"/>
			<stop  offset="1" style="stop-color:#C89954"/>
		</linearGradient>
		<path fill="url(#SVGID_32_)" d="M231.8,118.2c-26.1,15-31.8,12.2-35.2,6.4c-3.3-5.7-2.9-12.2,23.2-27.2s49.9-22.6,53.2-16.9
			C276.3,86.3,257.9,103.2,231.8,118.2z"/>
	</g>
	<g>
		
			<linearGradient id="SVGID_33_" gradientUnits="userSpaceOnUse" x1="183.1948" y1="-31.0117" x2="191.9003" y2="51.8154" gradientTransform="matrix(0.2588 0.9659 -0.9659 0.2588 207.8275 -33.7673)">
			<stop  offset="0.4082" style="stop-color:#E6E950"/>
			<stop  offset="0.4815" style="stop-color:#DFD651"/>
			<stop  offset="0.6052" style="stop-color:#D5BB52"/>
			<stop  offset="0.7317" style="stop-color:#CEA853"/>
			<stop  offset="0.8616" style="stop-color:#C99D54"/>
			<stop  offset="1" style="stop-color:#C89954"/>
		</linearGradient>
		<path fill="url(#SVGID_33_)" d="M236.7,163.4c-30.1,0-33.7-5.4-33.7-12c0-6.6,3.6-12,33.7-12s54.5,5.4,54.5,12
			C291.2,158,266.8,163.4,236.7,163.4z"/>
	</g>
	<g>
		
			<linearGradient id="SVGID_34_" gradientUnits="userSpaceOnUse" x1="170.7318" y1="-47.2479" x2="179.4373" y2="35.5792" gradientTransform="matrix(-0.2588 0.9659 -0.9659 -0.2588 273.0551 27.6026)">
			<stop  offset="0.4082" style="stop-color:#E6E950"/>
			<stop  offset="0.4815" style="stop-color:#DFD651"/>
			<stop  offset="0.6052" style="stop-color:#D5BB52"/>
			<stop  offset="0.7317" style="stop-color:#CEA853"/>
			<stop  offset="0.8616" style="stop-color:#C99D54"/>
			<stop  offset="1" style="stop-color:#C89954"/>
		</linearGradient>
		<path fill="url(#SVGID_34_)" d="M218.4,204.9c-26.1-15-26.5-21.5-23.2-27.2c3.3-5.7,9.1-8.6,35.2,6.4c26.1,15,44.5,31.9,41.2,37.6
			C268.3,227.5,244.5,220,218.4,204.9z"/>
	</g>
	<g>
		
			<linearGradient id="SVGID_35_" gradientUnits="userSpaceOnUse" x1="151.8205" y1="-55.0774" x2="160.5259" y2="27.7497" gradientTransform="matrix(-0.7071 0.7071 -0.7071 -0.7071 298.8589 113.3644)">
			<stop  offset="0.4082" style="stop-color:#E6E950"/>
			<stop  offset="0.4815" style="stop-color:#DFD651"/>
			<stop  offset="0.6052" style="stop-color:#D5BB52"/>
			<stop  offset="0.7317" style="stop-color:#CEA853"/>
			<stop  offset="0.8616" style="stop-color:#C99D54"/>
			<stop  offset="1" style="stop-color:#C89954"/>
		</linearGradient>
		<path fill="url(#SVGID_35_)" d="M181.8,231.8c-15-26.1-12.2-31.8-6.4-35.2c5.7-3.3,12.2-2.9,27.2,23.2s22.6,49.9,16.9,53.2
			C213.7,276.3,196.8,257.9,181.8,231.8z"/>
	</g>
	<g>
		
			<linearGradient id="SVGID_36_" gradientUnits="userSpaceOnUse" x1="131.528" y1="-52.4023" x2="140.2335" y2="30.4249" gradientTransform="matrix(-0.9659 0.2588 -0.2588 -0.9659 278.3247 200.5381)">
			<stop  offset="0.4082" style="stop-color:#E6E950"/>
			<stop  offset="0.4815" style="stop-color:#DFD651"/>
			<stop  offset="0.6052" style="stop-color:#D5BB52"/>
			<stop  offset="0.7317" style="stop-color:#CEA853"/>
			<stop  offset="0.8616" style="stop-color:#C99D54"/>
			<stop  offset="1" style="stop-color:#C89954"/>
		</linearGradient>
		<path fill="url(#SVGID_36_)" d="M136.6,236.7c0-30.1,5.4-33.7,12-33.7c6.6,0,12,3.6,12,33.7s-5.4,54.5-12,54.5
			C142,291.2,136.6,266.8,136.6,236.7z"/>
	</g>
	<g>
		
			<linearGradient id="SVGID_37_" gradientUnits="userSpaceOnUse" x1="115.2918" y1="-39.9393" x2="123.9973" y2="42.8879" gradientTransform="matrix(-0.9659 -0.2588 0.2588 -0.9659 216.9548 265.7658)">
			<stop  offset="0.4082" style="stop-color:#E6E950"/>
			<stop  offset="0.4815" style="stop-color:#DFD651"/>
			<stop  offset="0.6052" style="stop-color:#D5BB52"/>
			<stop  offset="0.7317" style="stop-color:#CEA853"/>
			<stop  offset="0.8616" style="stop-color:#C99D54"/>
			<stop  offset="1" style="stop-color:#C89954"/>
		</linearGradient>
		<path fill="url(#SVGID_37_)" d="M95.1,218.4c15-26.1,21.5-26.5,27.2-23.2c5.7,3.3,8.6,9.1-6.4,35.2s-31.9,44.5-37.6,41.2
			C72.5,268.3,80,244.5,95.1,218.4z"/>
	</g>
	<g>
		
			<linearGradient id="SVGID_38_" gradientUnits="userSpaceOnUse" x1="107.4623" y1="-21.0279" x2="116.1678" y2="61.7992" gradientTransform="matrix(-0.7071 -0.7071 0.7071 -0.7071 131.193 291.5695)">
			<stop  offset="0.4082" style="stop-color:#E6E950"/>
			<stop  offset="0.4815" style="stop-color:#DFD651"/>
			<stop  offset="0.6052" style="stop-color:#D5BB52"/>
			<stop  offset="0.7317" style="stop-color:#CEA853"/>
			<stop  offset="0.8616" style="stop-color:#C99D54"/>
			<stop  offset="1" style="stop-color:#C89954"/>
		</linearGradient>
		<path fill="url(#SVGID_38_)" d="M68.2,181.8c26.1-15,31.8-12.2,35.2-6.4c3.3,5.7,2.9,12.2-23.2,27.2S30.3,225.2,27,219.4
			C23.7,213.7,42.1,196.8,68.2,181.8z"/>
	</g>
	<g>
		
			<linearGradient id="SVGID_39_" gradientUnits="userSpaceOnUse" x1="110.1374" y1="-0.7355" x2="118.8429" y2="82.0917" gradientTransform="matrix(-0.2588 -0.9659 0.9659 -0.2588 44.0193 271.0354)">
			<stop  offset="0.4082" style="stop-color:#E6E950"/>
			<stop  offset="0.4815" style="stop-color:#DFD651"/>
			<stop  offset="0.6052" style="stop-color:#D5BB52"/>
			<stop  offset="0.7317" style="stop-color:#CEA853"/>
			<stop  offset="0.8616" style="stop-color:#C99D54"/>
			<stop  offset="1" style="stop-color:#C89954"/>
		</linearGradient>
		<path fill="url(#SVGID_39_)" d="M63.3,136.6c30.1,0,33.7,5.4,33.7,12c0,6.6-3.6,12-33.7,12s-54.5-5.4-54.5-12
			C8.8,142,33.2,136.6,63.3,136.6z"/>
	</g>
	<g>
		
			<linearGradient id="SVGID_40_" gradientUnits="userSpaceOnUse" x1="122.6004" y1="15.5008" x2="131.3059" y2="98.3279" gradientTransform="matrix(0.2588 -0.9659 0.9659 0.2588 -21.2084 209.6654)">
			<stop  offset="0.4082" style="stop-color:#E6E950"/>
			<stop  offset="0.4815" style="stop-color:#DFD651"/>
			<stop  offset="0.6052" style="stop-color:#D5BB52"/>
			<stop  offset="0.7317" style="stop-color:#CEA853"/>
			<stop  offset="0.8616" style="stop-color:#C99D54"/>
			<stop  offset="1" style="stop-color:#C89954"/>
		</linearGradient>
		<path fill="url(#SVGID_40_)" d="M81.6,95.1c26.1,15,26.5,21.5,23.2,27.2c-3.3,5.7-9.1,8.6-35.2-6.4S25.1,83.9,28.4,78.2
			C31.7,72.5,55.5,80,81.6,95.1z"/>
	</g>
	<g>
		
			<linearGradient id="SVGID_41_" gradientUnits="userSpaceOnUse" x1="141.5118" y1="23.3303" x2="150.2173" y2="106.1574" gradientTransform="matrix(0.7071 -0.7071 0.7071 0.7071 -47.0121 123.9037)">
			<stop  offset="0.4082" style="stop-color:#E6E950"/>
			<stop  offset="0.4815" style="stop-color:#DFD651"/>
			<stop  offset="0.6052" style="stop-color:#D5BB52"/>
			<stop  offset="0.7317" style="stop-color:#CEA853"/>
			<stop  offset="0.8616" style="stop-color:#C99D54"/>
			<stop  offset="1" style="stop-color:#C89954"/>
		</linearGradient>
		<path fill="url(#SVGID_41_)" d="M118.2,68.2c15,26.1,12.2,31.8,6.4,35.2c-5.7,3.3-12.2,2.9-27.2-23.2S74.8,30.3,80.6,27
			S103.2,42.1,118.2,68.2z"/>
	</g>
	<g>
		
			<linearGradient id="SVGID_42_" gradientUnits="userSpaceOnUse" x1="161.8042" y1="20.6551" x2="170.5097" y2="103.4822" gradientTransform="matrix(0.9659 -0.2588 0.2588 0.9659 -26.478 36.7299)">
			<stop  offset="0.4082" style="stop-color:#E6E950"/>
			<stop  offset="0.4815" style="stop-color:#DFD651"/>
			<stop  offset="0.6052" style="stop-color:#D5BB52"/>
			<stop  offset="0.7317" style="stop-color:#CEA853"/>
			<stop  offset="0.8616" style="stop-color:#C99D54"/>
			<stop  offset="1" style="stop-color:#C89954"/>
		</linearGradient>
		<path fill="url(#SVGID_42_)" d="M163.4,63.3c0,30.1-5.4,33.7-12,33.7s-12-3.6-12-33.7s5.4-54.5,12-54.5S163.4,33.2,163.4,63.3z"/>
	</g>
	<g>
		
			<linearGradient id="SVGID_43_" gradientUnits="userSpaceOnUse" x1="178.0405" y1="8.1921" x2="186.746" y2="91.0193" gradientTransform="matrix(0.9659 0.2588 -0.2588 0.9659 34.892 -28.4977)">
			<stop  offset="0.4082" style="stop-color:#E6E950"/>
			<stop  offset="0.4815" style="stop-color:#DFD651"/>
			<stop  offset="0.6052" style="stop-color:#D5BB52"/>
			<stop  offset="0.7317" style="stop-color:#CEA853"/>
			<stop  offset="0.8616" style="stop-color:#C99D54"/>
			<stop  offset="1" style="stop-color:#C89954"/>
		</linearGradient>
		<path fill="url(#SVGID_43_)" d="M204.9,81.6c-15,26.1-21.5,26.5-27.2,23.2c-5.7-3.3-8.6-9.1,6.4-35.2s31.9-44.5,37.6-41.2
			C227.5,31.7,220,55.5,204.9,81.6z"/>
	</g>
</g>
</svg>
