<?xml version="1.0" encoding="UTF-8" standalone="no"?>
<svg
   xmlns:dc="http://purl.org/dc/elements/1.1/"
   xmlns:cc="http://creativecommons.org/ns#"
   xmlns:rdf="http://www.w3.org/1999/02/22-rdf-syntax-ns#"
   xmlns:svg="http://www.w3.org/2000/svg"
   xmlns="http://www.w3.org/2000/svg"
   xmlns:sodipodi="http://sodipodi.sourceforge.net/DTD/sodipodi-0.dtd"
   xmlns:inkscape="http://www.inkscape.org/namespaces/inkscape"
   fill="#000000"
   height="24"
   viewBox="0 0 24 24"
   width="24"
   id="svg2"
   version="1.1"
   inkscape:version="0.91 r13725"
   sodipodi:docname="Mapp white.svg">
  <metadata
     id="metadata12">
    <rdf:RDF>
      <cc:Work
         rdf:about="">
        <dc:format>image/svg+xml</dc:format>
        <dc:type
           rdf:resource="http://purl.org/dc/dcmitype/StillImage" />
        <dc:title></dc:title>
      </cc:Work>
    </rdf:RDF>
  </metadata>
  <defs
     id="defs10" />
  <sodipodi:namedview
     pagecolor="#ffffff"
     bordercolor="#666666"
     borderopacity="1"
     objecttolerance="10"
     gridtolerance="10"
     guidetolerance="10"
     inkscape:pageopacity="0"
     inkscape:pageshadow="2"
     inkscape:window-width="1920"
     inkscape:window-height="993"
     id="namedview8"
     showgrid="false"
     inkscape:zoom="27.812867"
     inkscape:cx="9.1291264"
     inkscape:cy="12.066571"
     inkscape:window-x="0"
     inkscape:window-y="24"
     inkscape:window-maximized="1"
     inkscape:current-layer="svg2" />
  <path
     d="M0 0h24v24H0zm15.35 6.41l-1.77-1.77c-.2-.2-.51-.2-.71 0L6 11.53V14h2.47l6.88-6.88c.2-.19.2-.51 0-.71z"
     fill="none"
     id="path4" />
  <path
     d="m 12.182766,2.029995 c -3.8699997,0 -7.0000001,3.13 -7.0000001,7 0,5.25 7.0000001,12.999999 7.0000001,12.999999 0,0 7,-7.749999 7,-12.999999 0,-3.87 -3.13,-7 -7,-7 z m -3.5371095,3.1347656 7.2558595,0 c 0.49884,0 0.90625,0.4074106 0.90625,0.90625 l 0,5.4414054 c 0,0.498839 -0.40741,0.908204 -0.90625,0.908204 l -6.3496095,0 -1.8144532,1.8125 0.00586,-8.1621094 c 0,-0.4988394 0.4035044,-0.90625 0.9023438,-0.90625 z"
     id="path3392"
     style="fill:#ffffff;fill-opacity:1"
     inkscape:connector-curvature="0" />
  <path
     inkscape:connector-curvature="0"
     style="fill:none"
     d="m -6.0375593,-1.8405993 24.0000003,0 0,24.0000003 -24.0000003,0 z"
     id="path3394" />
</svg>
